# xmcd
#
# Track frame offsets:
#	150
#	13093
#	36586
#	48621
#	65091
#	77954
#	97516
#	111948
#	127944
#	142352
#	159975
#	174712
#	194394
#	212741
#	224338
#	241891
#
# Disc length: 3540 seconds
# Revision: 0
# Processed by: cddbd v1.5.2PL0 Copyright (c) Steve Scherf et al.
# Submitted via: dBpowerAMP V12.0
#
DISCID=ee0dd210
DTITLE=The Detonators - Live At The East
DYEAR=2007
DGENRE=Jump Blues
TTITLE0=Second In Charge
TTITLE1=All of Me (All Over You)
TTITLE2=Skinny Skinny Skinny
TTITLE3=Love So Much
TTITLE4=Van Diemens Hop
TTITLE5=Off My Chops
TTITLE6=Jason You're A Lout
TTITLE7=Time Machine
TTITLE8=Hot Rod Tip Truck
TTITLE9=EH Leatherette
TTITLE10=Rocket 88
TTITLE11=Trottle Jockey Demon
TTITLE12=Evil Knieval
TTITLE13=Top Night Out
TTITLE14=Sugar Coated Love
TTITLE15=My Saving Grace
EXTD=
EXTT0=
EXTT1=
EXTT2=
EXTT3=
EXTT4=
EXTT5=
EXTT6=
EXTT7=
EXTT8=
EXTT9=
EXTT10=
EXTT11=
EXTT12=
EXTT13=
EXTT14=
EXTT15=
PLAYORDER=
